<svg width="134" height="28" viewBox="0 0 134 28" fill="none" xmlns="http://www.w3.org/2000/svg">
<g filter="url(#filter0_i_187_4995)">
<path d="M11.9426 27.9999C18.5301 28.031 23.9468 22.6866 23.9996 16.0987C24.01 14.7779 23.8064 13.5062 23.4227 12.3155C20.5861 12.5502 17.8155 13.7513 15.6455 15.9215C13.2925 18.2745 12.0783 21.3337 12.001 24.4165C11.9953 24.6475 11.6956 24.7323 11.5674 24.5409C10.0232 22.2341 7.39405 20.7153 4.40948 20.7153C3.29145 20.7153 2.22243 20.9284 1.24203 21.3168C3.19435 25.2603 7.24982 27.9772 11.9426 27.9999Z" fill="#1812FF"/>
<path d="M11.9999 7.58728C12.0056 7.35631 12.3053 7.27146 12.4335 7.46284C13.9777 9.76973 16.6068 11.2885 19.5914 11.2885C20.7104 11.2885 21.7794 11.0745 22.7598 10.6861C20.8084 6.74069 16.752 4.02277 12.0584 4.00014C5.46988 3.96809 0.0522254 9.31532 0.00037734 15.9041C-0.00999227 17.2249 0.193629 18.4976 0.578247 19.6883C3.41386 19.4536 6.18538 18.2525 8.35451 16.0823C10.7075 13.7292 11.9217 10.67 11.999 7.58728H11.9999Z" fill="#1812FF"/>
<mask id="mask0_187_4995" style="mask-type:alpha" maskUnits="userSpaceOnUse" x="0" y="4" width="24" height="24">
<path d="M11.9426 27.9999C18.5301 28.031 23.9468 22.6866 23.9996 16.0987C24.01 14.7779 23.8064 13.5062 23.4227 12.3155C20.5861 12.5502 17.8155 13.7513 15.6455 15.9215C13.2925 18.2745 12.0783 21.3337 12.001 24.4165C11.9953 24.6475 11.6956 24.7323 11.5674 24.5409C10.0232 22.2341 7.39405 20.7153 4.40948 20.7153C3.29145 20.7153 2.22243 20.9284 1.24203 21.3168C3.19435 25.2603 7.24982 27.9772 11.9426 27.9999Z" fill="#1812FF"/>
<path d="M11.9999 7.58728C12.0056 7.35631 12.3053 7.27146 12.4335 7.46284C13.9777 9.76973 16.6068 11.2885 19.5914 11.2885C20.7104 11.2885 21.7794 11.0745 22.7598 10.6861C20.8084 6.74069 16.752 4.02277 12.0584 4.00014C5.46988 3.96809 0.0522254 9.31532 0.00037734 15.9041C-0.00999227 17.2249 0.193629 18.4976 0.578247 19.6883C3.41386 19.4536 6.18538 18.2525 8.35451 16.0823C10.7075 13.7292 11.9217 10.67 11.999 7.58728H11.9999Z" fill="#1812FF"/>
</mask>
<g mask="url(#mask0_187_4995)">
<g filter="url(#filter1_f_187_4995)">
<ellipse cx="2.35034" cy="12.3155" rx="12.2031" ry="12.2449" fill="#3CD1EE"/>
</g>
<g filter="url(#filter2_f_187_4995)">
<ellipse cx="21.15" cy="24.1166" rx="13.9477" ry="13.9955" fill="#CB19EA"/>
</g>
</g>
<mask id="mask1_187_4995" style="mask-type:alpha" maskUnits="userSpaceOnUse" x="1" y="12" width="23" height="16">
<path d="M11.9426 27.9999C18.5301 28.031 23.9468 22.6866 23.9996 16.0987C24.01 14.7779 23.8064 13.5062 23.4227 12.3155C20.5861 12.5502 17.8155 13.7513 15.6455 15.9215C13.2925 18.2746 12.0783 21.3338 12.001 24.4165C11.9953 24.6475 11.6956 24.7323 11.5674 24.541C10.0232 22.2341 7.39405 20.7153 4.40948 20.7153C3.29144 20.7153 2.22243 20.9284 1.24202 21.3168C3.19434 25.2603 7.24982 27.9773 11.9426 27.9999Z" fill="#1812FF"/>
</mask>
<g mask="url(#mask1_187_4995)">
<g filter="url(#filter3_f_187_4995)">
<ellipse cx="23.9494" cy="14.7967" rx="7.62705" ry="7.27286" transform="rotate(90 23.9494 14.7967)" fill="#FF0833"/>
</g>
</g>
</g>
<g filter="url(#filter4_ddd_187_4995)">
<path d="M109.756 9.27753H110.942C112.679 9.27753 114.087 10.6857 114.087 12.4229V24.7381H109.756V9.27753Z" fill="black"/>
<path d="M33.268 18.6997C33.2906 19.5126 33.5954 20.2014 34.1825 20.7659C34.7923 21.3304 35.8084 21.6127 37.2311 21.6127C38.5408 21.6127 39.478 21.4208 40.0425 21.0369C40.6297 20.653 40.9232 20.1336 40.9232 19.4787C40.9232 19.0497 40.7313 18.7222 40.3474 18.4964C39.9861 18.2706 39.478 18.1012 38.8231 17.9883C38.1682 17.8528 37.1408 17.7061 35.7407 17.548C33.3019 17.2544 31.6534 16.5995 30.7953 15.5834C29.9597 14.5446 29.542 13.359 29.542 12.0267C29.542 11.0331 29.8355 10.1298 30.4227 9.31688C31.0098 8.48135 31.8792 7.81519 33.0309 7.31838C34.1825 6.82158 35.5713 6.57318 37.1972 6.57318C39.478 6.57318 41.2733 7.11515 42.583 8.19908C43.8928 9.26043 44.6041 10.6379 44.717 12.3316H40.449C40.3813 11.6541 40.0877 11.0896 39.5683 10.6379C39.0715 10.1863 38.2473 9.96046 37.0956 9.96046C34.9503 9.96046 33.8777 10.5702 33.8777 11.7896C33.8777 12.1283 33.9567 12.4106 34.1148 12.6364C34.2955 12.8622 34.6681 13.0655 35.2326 13.2461C35.7971 13.4268 36.6327 13.5736 37.7392 13.6865C40.1103 13.9349 41.9507 14.4881 43.2605 15.3462C44.5928 16.1818 45.259 17.4464 45.259 19.14C45.259 21.0143 44.5476 22.4595 43.125 23.4757C41.7249 24.4919 39.7151 25 37.0956 25C34.5664 25 32.6018 24.4467 31.2017 23.3402C29.8242 22.2111 29.0903 20.6643 29 18.6997H33.268Z" fill="black"/>
<path d="M54.4832 6.57318C56.2898 6.57318 57.8705 6.97966 59.2254 7.7926C60.5803 8.60555 61.6191 9.71206 62.3417 11.1121C63.0643 12.5122 63.4257 14.0704 63.4257 15.7866C63.4257 17.5028 63.0643 19.061 62.3417 20.461C61.6191 21.8611 60.5803 22.9676 59.2254 23.7806C57.8705 24.5935 56.2898 25 54.4832 25C52.6767 25 51.0959 24.5935 49.741 23.7806C48.3861 22.9676 47.3473 21.8611 46.6247 20.461C45.9021 19.061 45.5408 17.5028 45.5408 15.7866C45.5408 14.0704 45.9021 12.5122 46.6247 11.1121C47.3473 9.71206 48.3861 8.60555 49.741 7.7926C51.0959 6.97966 52.6767 6.57318 54.4832 6.57318ZM54.4832 21.0708C55.9059 21.0708 57.0237 20.574 57.8366 19.5804C58.6722 18.5642 59.0899 17.2996 59.0899 15.7866C59.0899 14.2736 58.6722 13.0203 57.8366 12.0267C57.0237 11.0105 55.9059 10.5024 54.4832 10.5024C53.0606 10.5024 51.9315 11.0105 51.0959 12.0267C50.283 13.0203 49.8765 14.2736 49.8765 15.7866C49.8765 17.2996 50.283 18.5642 51.0959 19.5804C51.9315 20.574 53.0606 21.0708 54.4832 21.0708Z" fill="black"/>
<path d="M83.8356 6.57318C85.5744 6.57318 86.9858 7.12644 88.0697 8.23295C89.1762 9.33946 89.7295 11.1347 89.7295 13.6187V24.729H85.3938V14.2962C85.3938 12.9413 85.168 11.9703 84.7163 11.3831C84.2873 10.796 83.5534 10.5024 82.5146 10.5024C81.5436 10.5024 80.7419 10.9879 80.1096 11.959C79.4773 12.9074 79.1612 14.1607 79.1612 15.7188V24.729H74.8255V14.7027C74.8255 13.2123 74.6561 12.1396 74.3174 11.4847C73.9786 10.8299 73.2899 10.5024 72.2511 10.5024C71.5511 10.5024 70.9188 10.7621 70.3542 11.2815C69.8123 11.7783 69.3832 12.4896 69.0671 13.4155C68.7509 14.3188 68.5928 15.335 68.5928 16.464V24.729H64.2571V6.84416H68.5928V7.86035C68.5928 8.26682 68.5477 8.60555 68.4574 8.87653C68.367 9.14752 68.2202 9.52012 68.017 9.99434C67.9267 10.175 67.8815 10.3218 67.8815 10.4347C67.8815 10.5702 67.9606 10.6718 68.1186 10.7395L68.2541 10.7734C68.3896 10.7734 68.4912 10.717 68.559 10.604C68.6267 10.4686 68.6606 10.3895 68.6606 10.3669C69.1348 9.1701 69.7897 8.24424 70.6252 7.58937C71.4608 6.91191 72.4543 6.57318 73.606 6.57318C74.7351 6.57318 75.6723 6.90062 76.4175 7.55549C77.1627 8.18779 77.6595 9.03461 77.9079 10.096C77.9756 10.3218 78.145 10.4347 78.416 10.4347C78.6418 10.4347 78.7999 10.3331 78.8902 10.1298C79.387 9.00073 80.0645 8.13133 80.9226 7.52162C81.8033 6.88933 82.7743 6.57318 83.8356 6.57318Z" fill="black"/>
<path d="M101.715 6.57318C103.702 6.57318 105.272 7.21676 106.424 8.50393C107.575 9.7911 108.151 11.6767 108.151 14.1607V24.729H103.815V15.6511C103.815 13.7091 103.556 12.3654 103.036 11.6202C102.517 10.875 101.67 10.5024 100.496 10.5024C99.6602 10.5024 98.8699 10.796 98.1247 11.3831C97.4021 11.9703 96.8149 12.7945 96.3633 13.8558C95.9116 14.9172 95.6858 16.114 95.6858 17.4464V24.729H91.3501V6.84416H95.6858V7.96197C95.6858 8.48135 95.6407 8.9217 95.5503 9.28301C95.46 9.64432 95.3245 10.0169 95.1439 10.4008C95.031 10.6718 94.9745 10.8524 94.9745 10.9428C94.9745 11.146 95.0648 11.2589 95.2455 11.2815H95.3471C95.5052 11.2815 95.6407 11.146 95.7536 10.875C96.2504 9.76852 97.0182 8.77491 98.0569 7.89422C99.0957 7.01353 100.315 6.57318 101.715 6.57318Z" fill="black"/>
<path d="M115.21 19.8175C115.21 17.9657 115.797 16.5995 116.972 15.7188C118.169 14.8156 119.749 14.3075 121.714 14.1946L123.441 14.1268C124.977 14.0817 126.072 13.98 126.727 13.822C127.382 13.6639 127.698 13.28 127.676 12.6703C127.653 11.9025 127.393 11.2815 126.896 10.8073C126.4 10.3331 125.463 10.096 124.085 10.096C122.685 10.096 121.691 10.3444 121.104 10.8412C120.517 11.3154 120.156 11.9703 120.02 12.8058H115.752C116.046 10.6831 116.983 9.11364 118.564 8.09746C120.144 7.08127 122.03 6.57318 124.221 6.57318C126.614 6.57318 128.511 7.16031 129.911 8.33457C131.311 9.50883 132.011 11.6767 132.011 14.8382V24.729H127.676V23.4757C127.676 22.7983 127.845 22.1434 128.184 21.5111C128.274 21.2853 128.319 21.1159 128.319 21.003C128.319 20.8675 128.263 20.7772 128.15 20.732L128.014 20.6982C127.879 20.6982 127.777 20.7659 127.709 20.9014C127.642 21.0143 127.608 21.082 127.608 21.1046C126.546 23.7015 124.492 25 121.443 25C120.336 25 119.298 24.7742 118.327 24.3225C117.378 23.8709 116.622 23.2499 116.057 22.4595C115.493 21.6692 115.21 20.7885 115.21 19.8175ZM127.676 15.5156C127.224 16.0124 126.625 16.3624 125.88 16.5657C125.158 16.7463 124.017 16.9157 122.459 17.0738C121.488 17.1867 120.754 17.4464 120.257 17.8528C119.783 18.2367 119.546 18.8126 119.546 19.5804C119.546 20.2352 119.794 20.7659 120.291 21.1724C120.811 21.5788 121.477 21.7821 122.29 21.7821C122.583 21.7821 122.809 21.7708 122.967 21.7482C124.3 21.5676 125.406 20.9917 126.287 20.0207C127.19 19.0497 127.653 17.548 127.676 15.5156Z" fill="black"/>
<path d="M114.343 4.80037C114.137 4.88149 113.913 4.92605 113.678 4.92605C112.676 4.92605 111.863 4.11362 111.863 3.11143C111.863 2.89861 111.9 2.69434 111.967 2.50459C111.953 2.50434 111.939 2.50421 111.924 2.50421C110.587 2.50421 109.502 3.5885 109.502 4.92605C109.502 6.26359 110.587 7.34789 111.924 7.34789C113.262 7.34789 114.346 6.26359 114.346 4.92605C114.346 4.88389 114.345 4.84199 114.343 4.80037Z" fill="black"/>
</g>
<defs>
<filter id="filter0_i_187_4995" x="0" y="4" width="24" height="24.8" filterUnits="userSpaceOnUse" color-interpolation-filters="sRGB">
<feFlood flood-opacity="0" result="BackgroundImageFix"/>
<feBlend mode="normal" in="SourceGraphic" in2="BackgroundImageFix" result="shape"/>
<feColorMatrix in="SourceAlpha" type="matrix" values="0 0 0 0 0 0 0 0 0 0 0 0 0 0 0 0 0 0 127 0" result="hardAlpha"/>
<feOffset dy="0.8"/>
<feGaussianBlur stdDeviation="0.4"/>
<feComposite in2="hardAlpha" operator="arithmetic" k2="-1" k3="1"/>
<feColorMatrix type="matrix" values="0 0 0 0 1 0 0 0 0 1 0 0 0 0 1 0 0 0 1 0"/>
<feBlend mode="overlay" in2="shape" result="effect1_innerShadow_187_4995"/>
</filter>
<filter id="filter1_f_187_4995" x="-19.8527" y="-9.92938" width="44.4062" height="44.4897" filterUnits="userSpaceOnUse" color-interpolation-filters="sRGB">
<feFlood flood-opacity="0" result="BackgroundImageFix"/>
<feBlend mode="normal" in="SourceGraphic" in2="BackgroundImageFix" result="shape"/>
<feGaussianBlur stdDeviation="5" result="effect1_foregroundBlur_187_4995"/>
</filter>
<filter id="filter2_f_187_4995" x="-2.7977" y="0.121063" width="47.8955" height="47.991" filterUnits="userSpaceOnUse" color-interpolation-filters="sRGB">
<feFlood flood-opacity="0" result="BackgroundImageFix"/>
<feBlend mode="normal" in="SourceGraphic" in2="BackgroundImageFix" result="shape"/>
<feGaussianBlur stdDeviation="5" result="effect1_foregroundBlur_187_4995"/>
</filter>
<filter id="filter3_f_187_4995" x="8.67651" y="-0.830383" width="30.5457" height="31.2541" filterUnits="userSpaceOnUse" color-interpolation-filters="sRGB">
<feFlood flood-opacity="0" result="BackgroundImageFix"/>
<feBlend mode="normal" in="SourceGraphic" in2="BackgroundImageFix" result="shape"/>
<feGaussianBlur stdDeviation="4" result="effect1_foregroundBlur_187_4995"/>
</filter>
<filter id="filter4_ddd_187_4995" x="28" y="0.704211" width="105.011" height="26.2958" filterUnits="userSpaceOnUse" color-interpolation-filters="sRGB">
<feFlood flood-opacity="0" result="BackgroundImageFix"/>
<feColorMatrix in="SourceAlpha" type="matrix" values="0 0 0 0 0 0 0 0 0 0 0 0 0 0 0 0 0 0 127 0" result="hardAlpha"/>
<feOffset dy="-0.8"/>
<feGaussianBlur stdDeviation="0.5"/>
<feComposite in2="hardAlpha" operator="out"/>
<feColorMatrix type="matrix" values="0 0 0 0 0 0 0 0 0 0 0 0 0 0 0 0 0 0 0.25 0"/>
<feBlend mode="normal" in2="BackgroundImageFix" result="effect1_dropShadow_187_4995"/>
<feColorMatrix in="SourceAlpha" type="matrix" values="0 0 0 0 0 0 0 0 0 0 0 0 0 0 0 0 0 0 127 0" result="hardAlpha"/>
<feOffset dy="0.5"/>
<feGaussianBlur stdDeviation="0.5"/>
<feComposite in2="hardAlpha" operator="out"/>
<feColorMatrix type="matrix" values="0 0 0 0 1 0 0 0 0 1 0 0 0 0 1 0 0 0 0.5 0"/>
<feBlend mode="overlay" in2="effect1_dropShadow_187_4995" result="effect2_dropShadow_187_4995"/>
<feColorMatrix in="SourceAlpha" type="matrix" values="0 0 0 0 0 0 0 0 0 0 0 0 0 0 0 0 0 0 127 0" result="hardAlpha"/>
<feOffset dy="1"/>
<feGaussianBlur stdDeviation="0.5"/>
<feComposite in2="hardAlpha" operator="out"/>
<feColorMatrix type="matrix" values="0 0 0 0 1 0 0 0 0 1 0 0 0 0 1 0 0 0 0.25 0"/>
<feBlend mode="overlay" in2="effect2_dropShadow_187_4995" result="effect3_dropShadow_187_4995"/>
<feBlend mode="normal" in="SourceGraphic" in2="effect3_dropShadow_187_4995" result="shape"/>
</filter>
</defs>
</svg>
